<?xml version="1.0" standalone="no"?><!DOCTYPE svg PUBLIC "-//W3C//DTD SVG 1.1//EN" "http://www.w3.org/Graphics/SVG/1.1/DTD/svg11.dtd"><svg t="1766323418168" class="icon" viewBox="0 0 1024 1024" version="1.1" xmlns="http://www.w3.org/2000/svg" p-id="10573" xmlns:xlink="http://www.w3.org/1999/xlink" width="200" height="200"><path d="M416 0h32v32h-32zM448 0h32v32h-32zM480 0h32v32h-32zM512 0h32v32h-32zM544 0h32v32h-32zM576 0h32v32h-32zM320 32h32v32h-32zM352 32h32v32h-32zM384 32h32v32h-32z" p-id="10574"></path><path d="M416 32h32v32h-32z" fill="#397B89" p-id="10575"></path><path d="M448 32h32v32h-32zM480 32h32v32h-32z" fill="#798397" p-id="10576"></path><path d="M512 32h32v32h-32zM544 32h32v32h-32zM576 32h32v32h-32z" fill="#3D424C" p-id="10577"></path><path d="M608 32h32v32h-32zM640 32h32v32h-32zM672 32h32v32h-32zM256 64h32v32H256zM288 64h32v32H288z" p-id="10578"></path><path d="M320 64h32v32h-32zM352 64h32v32h-32zM384 64h32v32h-32zM416 64h32v32h-32z" fill="#397B89" p-id="10579"></path><path d="M448 64h32v32h-32zM480 64h32v32h-32zM512 64h32v32h-32z" fill="#798397" p-id="10580"></path><path d="M544 64h32v32h-32zM576 64h32v32h-32zM608 64h32v32h-32zM640 64h32v32h-32z" fill="#3D424C" p-id="10581"></path><path d="M672 64h32v32h-32z" fill="#1D3E45" p-id="10582"></path><path d="M704 64h32v32h-32zM736 64h32v32h-32zM224 96h32v32H224z" p-id="10583"></path><path d="M256 96h32v32H256zM288 96h32v32H288z" fill="#798397" p-id="10584"></path><path d="M320 96h32v32h-32zM352 96h32v32h-32zM384 96h32v32h-32zM416 96h32v32h-32z" fill="#397B89" p-id="10585"></path><path d="M448 96h32v32h-32zM480 96h32v32h-32zM512 96h32v32h-32z" fill="#798397" p-id="10586"></path><path d="M544 96h32v32h-32zM576 96h32v32h-32zM608 96h32v32h-32zM640 96h32v32h-32z" fill="#3D424C" p-id="10587"></path><path d="M672 96h32v32h-32zM704 96h32v32h-32zM736 96h32v32h-32z" fill="#1D3E45" p-id="10588"></path><path d="M768 96h32v32h-32zM160 128h32v32H160zM192 128h32v32H192z" p-id="10589"></path><path d="M224 128h32v32H224zM256 128h32v32H256zM288 128h32v32H288z" fill="#798397" p-id="10590"></path><path d="M320 128h32v32h-32zM352 128h32v32h-32zM384 128h32v32h-32zM416 128h32v32h-32z" fill="#397B89" p-id="10591"></path><path d="M448 128h32v32h-32zM480 128h32v32h-32zM512 128h32v32h-32zM544 128h32v32h-32z" fill="#798397" p-id="10592"></path><path d="M576 128h32v32h-32zM608 128h32v32h-32zM640 128h32v32h-32z" fill="#3D424C" p-id="10593"></path><path d="M672 128h32v32h-32zM704 128h32v32h-32zM736 128h32v32h-32zM768 128h32v32h-32z" fill="#1D3E45" p-id="10594"></path><path d="M800 128h32v32h-32zM832 128h32v32h-32zM128 160h32v32H128z" p-id="10595"></path><path d="M160 160h32v32H160z" fill="#ADBBD7" p-id="10596"></path><path d="M192 160h32v32H192zM224 160h32v32H224zM256 160h32v32H256zM288 160h32v32H288z" fill="#798397" p-id="10597"></path><path d="M320 160h32v32h-32zM352 160h32v32h-32zM384 160h32v32h-32zM416 160h32v32h-32z" fill="#397B89" p-id="10598"></path><path d="M448 160h32v32h-32zM480 160h32v32h-32zM512 160h32v32h-32zM544 160h32v32h-32z" fill="#798397" p-id="10599"></path><path d="M576 160h32v32h-32zM608 160h32v32h-32zM640 160h32v32h-32zM672 160h32v32h-32z" fill="#3D424C" p-id="10600"></path><path d="M704 160h32v32h-32zM736 160h32v32h-32zM768 160h32v32h-32zM800 160h32v32h-32zM832 160h32v32h-32z" fill="#1D3E45" p-id="10601"></path><path d="M864 160h32v32h-32zM128 192h32v32H128z" p-id="10602"></path><path d="M160 192h32v32H160z" fill="#ADBBD7" p-id="10603"></path><path d="M192 192h32v32H192zM224 192h32v32H224zM256 192h32v32H256zM288 192h32v32H288z" fill="#798397" p-id="10604"></path><path d="M320 192h32v32h-32zM352 192h32v32h-32zM384 192h32v32h-32zM416 192h32v32h-32z" fill="#397B89" p-id="10605"></path><path d="M448 192h32v32h-32zM480 192h32v32h-32zM512 192h32v32h-32zM544 192h32v32h-32zM576 192h32v32h-32z" fill="#798397" p-id="10606"></path><path d="M608 192h32v32h-32zM640 192h32v32h-32zM672 192h32v32h-32z" fill="#3D424C" p-id="10607"></path><path d="M704 192h32v32h-32zM736 192h32v32h-32zM768 192h32v32h-32zM800 192h32v32h-32zM832 192h32v32h-32z" fill="#1D3E45" p-id="10608"></path><path d="M864 192h32v32h-32zM96 224h32v32H96z" p-id="10609"></path><path d="M128 224h32v32H128zM160 224h32v32H160zM192 224h32v32H192z" fill="#ADBBD7" p-id="10610"></path><path d="M224 224h32v32H224zM256 224h32v32H256zM288 224h32v32H288z" fill="#798397" p-id="10611"></path><path d="M320 224h32v32h-32zM352 224h32v32h-32zM384 224h32v32h-32zM416 224h32v32h-32z" fill="#397B89" p-id="10612"></path><path d="M448 224h32v32h-32zM480 224h32v32h-32zM512 224h32v32h-32zM544 224h32v32h-32zM576 224h32v32h-32z" fill="#798397" p-id="10613"></path><path d="M608 224h32v32h-32zM640 224h32v32h-32zM672 224h32v32h-32z" fill="#3D424C" p-id="10614"></path><path d="M704 224h32v32h-32zM736 224h32v32h-32zM768 224h32v32h-32zM800 224h32v32h-32zM832 224h32v32h-32zM864 224h32v32h-32z" fill="#1D3E45" p-id="10615"></path><path d="M896 224h32v32h-32zM64 256h32v32H64z" p-id="10616"></path><path d="M96 256h32v32H96zM128 256h32v32H128zM160 256h32v32H160zM192 256h32v32H192zM224 256h32v32H224z" fill="#ADBBD7" p-id="10617"></path><path d="M256 256h32v32H256zM288 256h32v32H288zM320 256h32v32h-32z" fill="#798397" p-id="10618"></path><path d="M352 256h32v32h-32zM384 256h32v32h-32zM416 256h32v32h-32z" fill="#397B89" p-id="10619"></path><path d="M448 256h32v32h-32zM480 256h32v32h-32zM512 256h32v32h-32zM544 256h32v32h-32zM576 256h32v32h-32z" fill="#798397" p-id="10620"></path><path d="M608 256h32v32h-32zM640 256h32v32h-32zM672 256h32v32h-32z" fill="#3D424C" p-id="10621"></path><path d="M704 256h32v32h-32zM736 256h32v32h-32zM768 256h32v32h-32zM800 256h32v32h-32zM832 256h32v32h-32zM864 256h32v32h-32z" fill="#1D3E45" p-id="10622"></path><path d="M896 256h32v32h-32z" fill="#3D424C" p-id="10623"></path><path d="M928 256h32v32h-32zM64 288h32v32H64z" p-id="10624"></path><path d="M96 288h32v32H96zM128 288h32v32H128zM160 288h32v32H160zM192 288h32v32H192zM224 288h32v32H224z" fill="#ADBBD7" p-id="10625"></path><path d="M256 288h32v32H256zM288 288h32v32H288zM320 288h32v32h-32z" fill="#798397" p-id="10626"></path><path d="M352 288h32v32h-32zM384 288h32v32h-32zM416 288h32v32h-32zM448 288h32v32h-32z" fill="#397B89" p-id="10627"></path><path d="M480 288h32v32h-32zM512 288h32v32h-32zM544 288h32v32h-32zM576 288h32v32h-32z" fill="#798397" p-id="10628"></path><path d="M608 288h32v32h-32zM640 288h32v32h-32zM672 288h32v32h-32z" fill="#3D424C" p-id="10629"></path><path d="M704 288h32v32h-32zM736 288h32v32h-32zM768 288h32v32h-32zM800 288h32v32h-32zM832 288h32v32h-32z" fill="#1D3E45" p-id="10630"></path><path d="M864 288h32v32h-32zM896 288h32v32h-32z" fill="#3D424C" p-id="10631"></path><path d="M928 288h32v32h-32zM32 320h32v32H32z" p-id="10632"></path><path d="M64 320h32v32H64zM96 320h32v32H96zM128 320h32v32H128zM160 320h32v32H160zM192 320h32v32H192z" fill="#ADBBD7" p-id="10633"></path><path d="M224 320h32v32H224z" fill="#51AFC3" p-id="10634"></path><path d="M256 320h32v32H256zM288 320h32v32H288zM320 320h32v32h-32z" fill="#798397" p-id="10635"></path><path d="M352 320h32v32h-32zM384 320h32v32h-32zM416 320h32v32h-32zM448 320h32v32h-32z" fill="#397B89" p-id="10636"></path><path d="M480 320h32v32h-32zM512 320h32v32h-32zM544 320h32v32h-32zM576 320h32v32h-32zM608 320h32v32h-32z" fill="#798397" p-id="10637"></path><path d="M640 320h32v32h-32zM672 320h32v32h-32zM704 320h32v32h-32z" fill="#3D424C" p-id="10638"></path><path d="M736 320h32v32h-32zM768 320h32v32h-32zM800 320h32v32h-32zM832 320h32v32h-32z" fill="#1D3E45" p-id="10639"></path><path d="M864 320h32v32h-32zM896 320h32v32h-32zM928 320h32v32h-32z" fill="#3D424C" p-id="10640"></path><path d="M960 320h32v32h-32zM32 352h32v32H32z" p-id="10641"></path><path d="M64 352h32v32H64zM96 352h32v32H96zM128 352h32v32H128z" fill="#ADBBD7" p-id="10642"></path><path d="M160 352h32v32H160zM192 352h32v32H192zM224 352h32v32H224z" fill="#51AFC3" p-id="10643"></path><path d="M256 352h32v32H256z" fill="#ADBBD7" p-id="10644"></path><path d="M288 352h32v32H288zM320 352h32v32h-32zM352 352h32v32h-32z" fill="#798397" p-id="10645"></path><path d="M384 352h32v32h-32zM416 352h32v32h-32zM448 352h32v32h-32z" fill="#397B89" p-id="10646"></path><path d="M480 352h32v32h-32zM512 352h32v32h-32zM544 352h32v32h-32zM576 352h32v32h-32zM608 352h32v32h-32z" fill="#798397" p-id="10647"></path><path d="M640 352h32v32h-32zM672 352h32v32h-32zM704 352h32v32h-32z" fill="#3D424C" p-id="10648"></path><path d="M736 352h32v32h-32zM768 352h32v32h-32zM800 352h32v32h-32zM832 352h32v32h-32z" fill="#1D3E45" p-id="10649"></path><path d="M864 352h32v32h-32zM896 352h32v32h-32zM928 352h32v32h-32z" fill="#3D424C" p-id="10650"></path><path d="M960 352h32v32h-32zM32 384h32v32H32z" p-id="10651"></path><path d="M64 384h32v32H64zM96 384h32v32H96zM128 384h32v32H128zM160 384h32v32H160z" fill="#ADBBD7" p-id="10652"></path><path d="M192 384h32v32H192zM224 384h32v32H224zM256 384h32v32H256z" fill="#51AFC3" p-id="10653"></path><path d="M288 384h32v32H288zM320 384h32v32h-32zM352 384h32v32h-32z" fill="#798397" p-id="10654"></path><path d="M384 384h32v32h-32zM416 384h32v32h-32zM448 384h32v32h-32zM480 384h32v32h-32z" fill="#397B89" p-id="10655"></path><path d="M512 384h32v32h-32zM544 384h32v32h-32zM576 384h32v32h-32zM608 384h32v32h-32z" fill="#798397" p-id="10656"></path><path d="M640 384h32v32h-32zM672 384h32v32h-32zM704 384h32v32h-32z" fill="#3D424C" p-id="10657"></path><path d="M736 384h32v32h-32zM768 384h32v32h-32zM800 384h32v32h-32z" fill="#1D3E45" p-id="10658"></path><path d="M832 384h32v32h-32zM864 384h32v32h-32zM896 384h32v32h-32zM928 384h32v32h-32z" fill="#3D424C" p-id="10659"></path><path d="M960 384h32v32h-32zM0 416h32v32H0z" p-id="10660"></path><path d="M32 416h32v32H32zM64 416h32v32H64zM96 416h32v32H96zM128 416h32v32H128zM160 416h32v32H160z" fill="#ADBBD7" p-id="10661"></path><path d="M192 416h32v32H192zM224 416h32v32H224zM256 416h32v32H256z" fill="#51AFC3" p-id="10662"></path><path d="M288 416h32v32H288zM320 416h32v32h-32zM352 416h32v32h-32zM384 416h32v32h-32z" fill="#798397" p-id="10663"></path><path d="M416 416h32v32h-32zM448 416h32v32h-32zM480 416h32v32h-32z" fill="#397B89" p-id="10664"></path><path d="M512 416h32v32h-32zM544 416h32v32h-32zM576 416h32v32h-32zM608 416h32v32h-32z" fill="#798397" p-id="10665"></path><path d="M640 416h32v32h-32zM672 416h32v32h-32zM704 416h32v32h-32z" fill="#3D424C" p-id="10666"></path><path d="M736 416h32v32h-32zM768 416h32v32h-32zM800 416h32v32h-32z" fill="#1D3E45" p-id="10667"></path><path d="M832 416h32v32h-32zM864 416h32v32h-32zM896 416h32v32h-32z" fill="#3D424C" p-id="10668"></path><path d="M928 416h32v32h-32z" fill="#1D3E45" p-id="10669"></path><path d="M960 416h32v32h-32z" fill="#3D424C" p-id="10670"></path><path d="M992 416h32v32h-32zM0 448h32v32H0z" p-id="10671"></path><path d="M32 448h32v32H32zM64 448h32v32H64zM96 448h32v32H96zM128 448h32v32H128zM160 448h32v32H160z" fill="#ADBBD7" p-id="10672"></path><path d="M192 448h32v32H192zM224 448h32v32H224zM256 448h32v32H256z" fill="#51AFC3" p-id="10673"></path><path d="M288 448h32v32H288z" fill="#ADBBD7" p-id="10674"></path><path d="M320 448h32v32h-32zM352 448h32v32h-32zM384 448h32v32h-32z" fill="#798397" p-id="10675"></path><path d="M416 448h32v32h-32zM448 448h32v32h-32zM480 448h32v32h-32z" fill="#397B89" p-id="10676"></path><path d="M512 448h32v32h-32zM544 448h32v32h-32zM576 448h32v32h-32zM608 448h32v32h-32zM640 448h32v32h-32z" fill="#798397" p-id="10677"></path><path d="M672 448h32v32h-32zM704 448h32v32h-32z" fill="#3D424C" p-id="10678"></path><path d="M736 448h32v32h-32zM768 448h32v32h-32zM800 448h32v32h-32z" fill="#1D3E45" p-id="10679"></path><path d="M832 448h32v32h-32zM864 448h32v32h-32zM896 448h32v32h-32z" fill="#3D424C" p-id="10680"></path><path d="M928 448h32v32h-32z" fill="#1D3E45" p-id="10681"></path><path d="M960 448h32v32h-32z" fill="#3D424C" p-id="10682"></path><path d="M992 448h32v32h-32zM0 480h32v32H0z" p-id="10683"></path><path d="M32 480h32v32H32zM64 480h32v32H64zM96 480h32v32H96zM128 480h32v32H128zM160 480h32v32H160z" fill="#ADBBD7" p-id="10684"></path><path d="M192 480h32v32H192zM224 480h32v32H224zM256 480h32v32H256z" fill="#51AFC3" p-id="10685"></path><path d="M288 480h32v32H288z" fill="#ADBBD7" p-id="10686"></path><path d="M320 480h32v32h-32zM352 480h32v32h-32zM384 480h32v32h-32zM416 480h32v32h-32z" fill="#798397" p-id="10687"></path><path d="M448 480h32v32h-32zM480 480h32v32h-32z" fill="#397B89" p-id="10688"></path><path d="M512 480h32v32h-32zM544 480h32v32h-32zM576 480h32v32h-32zM608 480h32v32h-32zM640 480h32v32h-32z" fill="#798397" p-id="10689"></path><path d="M672 480h32v32h-32zM704 480h32v32h-32z" fill="#3D424C" p-id="10690"></path><path d="M736 480h32v32h-32zM768 480h32v32h-32zM800 480h32v32h-32z" fill="#1D3E45" p-id="10691"></path><path d="M832 480h32v32h-32zM864 480h32v32h-32z" fill="#3D424C" p-id="10692"></path><path d="M896 480h32v32h-32zM928 480h32v32h-32zM960 480h32v32h-32z" fill="#1D3E45" p-id="10693"></path><path d="M992 480h32v32h-32zM0 512h32v32H0z" p-id="10694"></path><path d="M32 512h32v32H32zM64 512h32v32H64zM96 512h32v32H96zM128 512h32v32H128zM160 512h32v32H160z" fill="#ADBBD7" p-id="10695"></path><path d="M192 512h32v32H192zM224 512h32v32H224zM256 512h32v32H256zM288 512h32v32H288z" fill="#51AFC3" p-id="10696"></path><path d="M320 512h32v32h-32zM352 512h32v32h-32zM384 512h32v32h-32zM416 512h32v32h-32z" fill="#798397" p-id="10697"></path><path d="M448 512h32v32h-32zM480 512h32v32h-32z" fill="#397B89" p-id="10698"></path><path d="M512 512h32v32h-32zM544 512h32v32h-32zM576 512h32v32h-32zM608 512h32v32h-32zM640 512h32v32h-32z" fill="#798397" p-id="10699"></path><path d="M672 512h32v32h-32zM704 512h32v32h-32z" fill="#3D424C" p-id="10700"></path><path d="M736 512h32v32h-32zM768 512h32v32h-32zM800 512h32v32h-32z" fill="#1D3E45" p-id="10701"></path><path d="M832 512h32v32h-32zM864 512h32v32h-32z" fill="#3D424C" p-id="10702"></path><path d="M896 512h32v32h-32zM928 512h32v32h-32zM960 512h32v32h-32z" fill="#1D3E45" p-id="10703"></path><path d="M992 512h32v32h-32zM0 544h32v32H0z" p-id="10704"></path><path d="M32 544h32v32H32zM64 544h32v32H64zM96 544h32v32H96zM128 544h32v32H128zM160 544h32v32H160z" fill="#ADBBD7" p-id="10705"></path><path d="M192 544h32v32H192zM224 544h32v32H224zM256 544h32v32H256zM288 544h32v32H288z" fill="#51AFC3" p-id="10706"></path><path d="M320 544h32v32h-32zM352 544h32v32h-32zM384 544h32v32h-32zM416 544h32v32h-32zM448 544h32v32h-32z" fill="#798397" p-id="10707"></path><path d="M480 544h32v32h-32zM512 544h32v32h-32z" fill="#397B89" p-id="10708"></path><path d="M544 544h32v32h-32zM576 544h32v32h-32zM608 544h32v32h-32zM640 544h32v32h-32z" fill="#798397" p-id="10709"></path><path d="M672 544h32v32h-32z" fill="#3D424C" p-id="10710"></path><path d="M704 544h32v32h-32zM736 544h32v32h-32zM768 544h32v32h-32zM800 544h32v32h-32z" fill="#1D3E45" p-id="10711"></path><path d="M832 544h32v32h-32zM864 544h32v32h-32z" fill="#3D424C" p-id="10712"></path><path d="M896 544h32v32h-32zM928 544h32v32h-32zM960 544h32v32h-32z" fill="#1D3E45" p-id="10713"></path><path d="M992 544h32v32h-32zM0 576h32v32H0z" p-id="10714"></path><path d="M32 576h32v32H32zM64 576h32v32H64zM96 576h32v32H96zM128 576h32v32H128zM160 576h32v32H160z" fill="#ADBBD7" p-id="10715"></path><path d="M192 576h32v32H192zM224 576h32v32H224zM256 576h32v32H256z" fill="#51AFC3" p-id="10716"></path><path d="M288 576h32v32H288z" fill="#397B89" p-id="10717"></path><path d="M320 576h32v32h-32zM352 576h32v32h-32zM384 576h32v32h-32zM416 576h32v32h-32zM448 576h32v32h-32zM480 576h32v32h-32z" fill="#798397" p-id="10718"></path><path d="M512 576h32v32h-32z" fill="#397B89" p-id="10719"></path><path d="M544 576h32v32h-32zM576 576h32v32h-32zM608 576h32v32h-32z" fill="#798397" p-id="10720"></path><path d="M640 576h32v32h-32zM672 576h32v32h-32z" fill="#3D424C" p-id="10721"></path><path d="M704 576h32v32h-32zM736 576h32v32h-32zM768 576h32v32h-32zM800 576h32v32h-32z" fill="#1D3E45" p-id="10722"></path><path d="M832 576h32v32h-32zM864 576h32v32h-32z" fill="#3D424C" p-id="10723"></path><path d="M896 576h32v32h-32zM928 576h32v32h-32zM960 576h32v32h-32z" fill="#1D3E45" p-id="10724"></path><path d="M992 576h32v32h-32zM32 608h32v32H32z" p-id="10725"></path><path d="M64 608h32v32H64zM96 608h32v32H96zM128 608h32v32H128zM160 608h32v32H160z" fill="#ADBBD7" p-id="10726"></path><path d="M192 608h32v32H192zM224 608h32v32H224zM256 608h32v32H256z" fill="#51AFC3" p-id="10727"></path><path d="M288 608h32v32H288z" fill="#397B89" p-id="10728"></path><path d="M320 608h32v32h-32zM352 608h32v32h-32zM384 608h32v32h-32zM416 608h32v32h-32zM448 608h32v32h-32zM480 608h32v32h-32z" fill="#798397" p-id="10729"></path><path d="M512 608h32v32h-32z" fill="#397B89" p-id="10730"></path><path d="M544 608h32v32h-32zM576 608h32v32h-32zM608 608h32v32h-32z" fill="#798397" p-id="10731"></path><path d="M640 608h32v32h-32zM672 608h32v32h-32z" fill="#3D424C" p-id="10732"></path><path d="M704 608h32v32h-32zM736 608h32v32h-32zM768 608h32v32h-32zM800 608h32v32h-32z" fill="#1D3E45" p-id="10733"></path><path d="M832 608h32v32h-32zM864 608h32v32h-32zM896 608h32v32h-32z" fill="#3D424C" p-id="10734"></path><path d="M928 608h32v32h-32z" fill="#1D3E45" p-id="10735"></path><path d="M960 608h32v32h-32zM32 640h32v32H32z" p-id="10736"></path><path d="M64 640h32v32H64zM96 640h32v32H96zM128 640h32v32H128zM160 640h32v32H160z" fill="#ADBBD7" p-id="10737"></path><path d="M192 640h32v32H192zM224 640h32v32H224zM256 640h32v32H256z" fill="#51AFC3" p-id="10738"></path><path d="M288 640h32v32H288z" fill="#397B89" p-id="10739"></path><path d="M320 640h32v32h-32zM352 640h32v32h-32zM384 640h32v32h-32zM416 640h32v32h-32zM448 640h32v32h-32zM480 640h32v32h-32z" fill="#798397" p-id="10740"></path><path d="M512 640h32v32h-32z" fill="#397B89" p-id="10741"></path><path d="M544 640h32v32h-32zM576 640h32v32h-32zM608 640h32v32h-32z" fill="#798397" p-id="10742"></path><path d="M640 640h32v32h-32z" fill="#3D424C" p-id="10743"></path><path d="M672 640h32v32h-32zM704 640h32v32h-32zM736 640h32v32h-32zM768 640h32v32h-32z" fill="#1D3E45" p-id="10744"></path><path d="M800 640h32v32h-32zM832 640h32v32h-32zM864 640h32v32h-32zM896 640h32v32h-32z" fill="#3D424C" p-id="10745"></path><path d="M928 640h32v32h-32z" fill="#1D3E45" p-id="10746"></path><path d="M960 640h32v32h-32zM32 672h32v32H32z" p-id="10747"></path><path d="M64 672h32v32H64zM96 672h32v32H96zM128 672h32v32H128zM160 672h32v32H160z" fill="#ADBBD7" p-id="10748"></path><path d="M192 672h32v32H192zM224 672h32v32H224z" fill="#51AFC3" p-id="10749"></path><path d="M256 672h32v32H256zM288 672h32v32H288z" fill="#397B89" p-id="10750"></path><path d="M320 672h32v32h-32zM352 672h32v32h-32zM384 672h32v32h-32zM416 672h32v32h-32zM448 672h32v32h-32zM480 672h32v32h-32z" fill="#798397" p-id="10751"></path><path d="M512 672h32v32h-32z" fill="#397B89" p-id="10752"></path><path d="M544 672h32v32h-32zM576 672h32v32h-32zM608 672h32v32h-32z" fill="#798397" p-id="10753"></path><path d="M640 672h32v32h-32z" fill="#3D424C" p-id="10754"></path><path d="M672 672h32v32h-32zM704 672h32v32h-32zM736 672h32v32h-32zM768 672h32v32h-32z" fill="#1D3E45" p-id="10755"></path><path d="M800 672h32v32h-32zM832 672h32v32h-32zM864 672h32v32h-32zM896 672h32v32h-32z" fill="#3D424C" p-id="10756"></path><path d="M928 672h32v32h-32z" fill="#1D3E45" p-id="10757"></path><path d="M960 672h32v32h-32zM64 704h32v32H64z" p-id="10758"></path><path d="M96 704h32v32H96zM128 704h32v32H128z" fill="#ADBBD7" p-id="10759"></path><path d="M160 704h32v32H160zM192 704h32v32H192zM224 704h32v32H224z" fill="#51AFC3" p-id="10760"></path><path d="M256 704h32v32H256zM288 704h32v32H288z" fill="#397B89" p-id="10761"></path><path d="M320 704h32v32h-32zM352 704h32v32h-32zM384 704h32v32h-32zM416 704h32v32h-32zM448 704h32v32h-32zM480 704h32v32h-32zM512 704h32v32h-32zM544 704h32v32h-32zM576 704h32v32h-32z" fill="#798397" p-id="10762"></path><path d="M608 704h32v32h-32zM640 704h32v32h-32z" fill="#3D424C" p-id="10763"></path><path d="M672 704h32v32h-32zM704 704h32v32h-32zM736 704h32v32h-32zM768 704h32v32h-32z" fill="#1D3E45" p-id="10764"></path><path d="M800 704h32v32h-32zM832 704h32v32h-32zM864 704h32v32h-32zM896 704h32v32h-32z" fill="#3D424C" p-id="10765"></path><path d="M928 704h32v32h-32zM64 736h32v32H64z" p-id="10766"></path><path d="M96 736h32v32H96zM128 736h32v32H128z" fill="#ADBBD7" p-id="10767"></path><path d="M160 736h32v32H160zM192 736h32v32H192zM224 736h32v32H224z" fill="#51AFC3" p-id="10768"></path><path d="M256 736h32v32H256zM288 736h32v32H288z" fill="#397B89" p-id="10769"></path><path d="M320 736h32v32h-32zM352 736h32v32h-32zM384 736h32v32h-32zM416 736h32v32h-32zM448 736h32v32h-32zM480 736h32v32h-32zM512 736h32v32h-32zM544 736h32v32h-32zM576 736h32v32h-32z" fill="#798397" p-id="10770"></path><path d="M608 736h32v32h-32zM640 736h32v32h-32z" fill="#3D424C" p-id="10771"></path><path d="M672 736h32v32h-32zM704 736h32v32h-32zM736 736h32v32h-32z" fill="#1D3E45" p-id="10772"></path><path d="M768 736h32v32h-32zM800 736h32v32h-32zM832 736h32v32h-32zM864 736h32v32h-32zM896 736h32v32h-32z" fill="#3D424C" p-id="10773"></path><path d="M928 736h32v32h-32zM96 768h32v32H96z" p-id="10774"></path><path d="M128 768h32v32H128z" fill="#ADBBD7" p-id="10775"></path><path d="M160 768h32v32H160zM192 768h32v32H192z" fill="#51AFC3" p-id="10776"></path><path d="M224 768h32v32H224zM256 768h32v32H256zM288 768h32v32H288z" fill="#397B89" p-id="10777"></path><path d="M320 768h32v32h-32zM352 768h32v32h-32zM384 768h32v32h-32zM416 768h32v32h-32zM448 768h32v32h-32zM480 768h32v32h-32zM512 768h32v32h-32zM544 768h32v32h-32zM576 768h32v32h-32z" fill="#798397" p-id="10778"></path><path d="M608 768h32v32h-32zM640 768h32v32h-32z" fill="#3D424C" p-id="10779"></path><path d="M672 768h32v32h-32zM704 768h32v32h-32z" fill="#1D3E45" p-id="10780"></path><path d="M736 768h32v32h-32zM768 768h32v32h-32zM800 768h32v32h-32zM832 768h32v32h-32zM864 768h32v32h-32z" fill="#3D424C" p-id="10781"></path><path d="M896 768h32v32h-32zM128 800h32v32H128z" p-id="10782"></path><path d="M160 800h32v32H160z" fill="#51AFC3" p-id="10783"></path><path d="M192 800h32v32H192zM224 800h32v32H224zM256 800h32v32H256zM288 800h32v32H288z" fill="#397B89" p-id="10784"></path><path d="M320 800h32v32h-32zM352 800h32v32h-32zM384 800h32v32h-32zM416 800h32v32h-32zM448 800h32v32h-32zM480 800h32v32h-32zM512 800h32v32h-32zM544 800h32v32h-32zM576 800h32v32h-32z" fill="#798397" p-id="10785"></path><path d="M608 800h32v32h-32z" fill="#3D424C" p-id="10786"></path><path d="M640 800h32v32h-32zM672 800h32v32h-32z" fill="#1D3E45" p-id="10787"></path><path d="M704 800h32v32h-32zM736 800h32v32h-32zM768 800h32v32h-32zM800 800h32v32h-32zM832 800h32v32h-32z" fill="#3D424C" p-id="10788"></path><path d="M864 800h32v32h-32zM128 832h32v32H128z" p-id="10789"></path><path d="M160 832h32v32H160z" fill="#51AFC3" p-id="10790"></path><path d="M192 832h32v32H192zM224 832h32v32H224zM256 832h32v32H256zM288 832h32v32H288z" fill="#397B89" p-id="10791"></path><path d="M320 832h32v32h-32zM352 832h32v32h-32zM384 832h32v32h-32zM416 832h32v32h-32zM448 832h32v32h-32zM480 832h32v32h-32zM512 832h32v32h-32zM544 832h32v32h-32z" fill="#798397" p-id="10792"></path><path d="M576 832h32v32h-32z" fill="#3D424C" p-id="10793"></path><path d="M608 832h32v32h-32z" fill="#1D3E45" p-id="10794"></path><path d="M640 832h32v32h-32zM672 832h32v32h-32zM704 832h32v32h-32zM736 832h32v32h-32zM768 832h32v32h-32zM800 832h32v32h-32zM832 832h32v32h-32z" fill="#3D424C" p-id="10795"></path><path d="M864 832h32v32h-32zM160 864h32v32H160zM192 864h32v32H192z" p-id="10796"></path><path d="M224 864h32v32H224zM256 864h32v32H256zM288 864h32v32H288z" fill="#397B89" p-id="10797"></path><path d="M320 864h32v32h-32zM352 864h32v32h-32zM384 864h32v32h-32zM416 864h32v32h-32zM448 864h32v32h-32zM480 864h32v32h-32zM512 864h32v32h-32zM544 864h32v32h-32z" fill="#798397" p-id="10798"></path><path d="M576 864h32v32h-32zM608 864h32v32h-32zM640 864h32v32h-32zM672 864h32v32h-32zM704 864h32v32h-32zM736 864h32v32h-32zM768 864h32v32h-32z" fill="#3D424C" p-id="10799"></path><path d="M800 864h32v32h-32zM832 864h32v32h-32zM224 896h32v32H224z" p-id="10800"></path><path d="M256 896h32v32H256zM288 896h32v32H288zM320 896h32v32h-32z" fill="#397B89" p-id="10801"></path><path d="M352 896h32v32h-32zM384 896h32v32h-32zM416 896h32v32h-32zM448 896h32v32h-32zM480 896h32v32h-32zM512 896h32v32h-32z" fill="#798397" p-id="10802"></path><path d="M544 896h32v32h-32zM576 896h32v32h-32zM608 896h32v32h-32zM640 896h32v32h-32zM672 896h32v32h-32zM704 896h32v32h-32zM736 896h32v32h-32z" fill="#3D424C" p-id="10803"></path><path d="M768 896h32v32h-32zM256 928h32v32H256zM288 928h32v32H288z" p-id="10804"></path><path d="M320 928h32v32h-32z" fill="#397B89" p-id="10805"></path><path d="M352 928h32v32h-32zM384 928h32v32h-32zM416 928h32v32h-32zM448 928h32v32h-32zM480 928h32v32h-32zM512 928h32v32h-32z" fill="#798397" p-id="10806"></path><path d="M544 928h32v32h-32zM576 928h32v32h-32zM608 928h32v32h-32zM640 928h32v32h-32zM672 928h32v32h-32z" fill="#3D424C" p-id="10807"></path><path d="M704 928h32v32h-32zM736 928h32v32h-32zM320 960h32v32h-32zM352 960h32v32h-32zM384 960h32v32h-32z" p-id="10808"></path><path d="M416 960h32v32h-32zM448 960h32v32h-32zM480 960h32v32h-32z" fill="#798397" p-id="10809"></path><path d="M512 960h32v32h-32zM544 960h32v32h-32zM576 960h32v32h-32z" fill="#3D424C" p-id="10810"></path><path d="M608 960h32v32h-32zM640 960h32v32h-32zM672 960h32v32h-32zM416 992h32v32h-32zM448 992h32v32h-32zM480 992h32v32h-32zM512 992h32v32h-32zM544 992h32v32h-32zM576 992h32v32h-32z" p-id="10811"></path></svg>