<?xml version="1.0" standalone="no"?><!DOCTYPE svg PUBLIC "-//W3C//DTD SVG 1.1//EN" "http://www.w3.org/Graphics/SVG/1.1/DTD/svg11.dtd"><svg t="1766318897814" class="icon" viewBox="0 0 1024 1024" version="1.1" xmlns="http://www.w3.org/2000/svg" p-id="2073" xmlns:xlink="http://www.w3.org/1999/xlink" width="200" height="200"><path d="M1024 481.88v60.24h-60.24v60.24h-60.24v60.22h-120.46v-60.22h-60.24v60.22h60.24v60.24h60.24v120.48h-120.48v-60.24h-60.24v-60.24h-60.22v60.24h60.22v120.46h-60.22v60.24h-60.24V1024h-60.24v-60.24h-60.24v-60.24h-60.22v-120.46h60.22v-60.24h-60.22v60.24h-60.24v60.24H180.7v-120.48h60.24v-60.24h60.24v-60.22h-60.24v60.22H120.48v-60.22H60.24v-60.24H0v-60.24h60.24v-60.24h60.24v-60.22h120.46v60.22h60.24v-60.22h-60.24v-60.24H180.7V180.7h120.48v60.24h60.24v60.24h60.22v-60.24h-60.22V120.48h60.22V60.24h60.24V0h60.24v60.24h60.24v60.24h60.22v120.46h-60.22v60.24h60.22v-60.24h60.24V180.7h120.48v120.48h-60.24v60.24h-60.24v60.22h60.24v-60.22h120.46v60.22h60.24v60.24z" p-id="2074"></path><path d="M903.52 481.88l-60.22-30.12-60.24 30.12h-60.24l-60.24-60.24v-60.22h-60.22l-60.24-60.24v-60.24h60.24V180.7l-60.24-60.22L512 90.36l-30.12 30.12-60.24 60.22v60.24h60.24v60.24l-60.24 60.24h-60.22v60.22l-60.24 60.24h-60.24l-60.24-30.12-60.22 30.12L90.36 512l30.12 30.12v60.24h120.46v-60.24h60.24l60.24 60.24v60.22h60.22l60.24 60.24v60.24h-60.24v120.46h60.24v60.24h60.24v-60.24h60.24v-120.46h-60.24v-60.24l60.24-60.24h60.22v-60.22l60.24-60.24h60.24v60.24h120.46v-60.24L933.64 512z" fill="#B2D7F3" p-id="2075"></path><path d="M240.94 240.94h60.24v60.24h-60.24zM301.18 301.18h60.24v60.24h-60.24zM722.82 240.94h60.24v60.24h-60.24zM662.58 301.18h60.24v60.24h-60.24zM722.82 722.82h60.24v60.24h-60.24zM662.58 662.58h60.24v60.24h-60.24zM240.94 722.82h60.24v60.24h-60.24zM301.18 662.58h60.24v60.24h-60.24z" fill="#B2D7F3" p-id="2076"></path><path d="M421.64 602.36v120.46h60.24v-60.24h60.24v60.24h60.24v-120.46zM662.58 481.88v60.24h60.24v60.24h-120.46v-180.72h120.46v60.24zM602.36 421.64v-120.46h-60.24v60.24h-60.24v-60.24h-60.24v120.46zM421.64 421.64h-120.46v60.24h60.24v60.24h-60.24v60.24H421.64zM481.88 481.88h60.24v60.24h-60.24z" fill="#3D99E1" p-id="2077"></path><path d="M60.24 481.88h60.24v60.24H60.24zM120.48 421.64h120.46v60.24H120.48zM542.12 120.48h60.24v60.22h-60.24zM481.88 60.24h60.24v60.24h-60.24zM421.64 120.48h60.24v60.22h-60.24zM903.52 481.88h60.24v60.24h-60.24zM783.06 421.64h120.46v60.24h-120.46z" fill="#E9F3FB" p-id="2078"></path></svg>